<svg id="Layer_1" version="1.1" viewBox="0 0 512 512" xml:space="preserve" xmlns="http://www.w3.org/2000/svg" enable-background="new 0 0 512 512"><path d="M409.45 503.27H103.78c-20.24 0-36.65-16.41-36.65-36.65L65.9 45.38c0-20.24 16.41-36.65 36.65-36.65h305.67c20.24 0 36.65 16.41 36.65 36.65l1.23 421.24c0 20.24-16.41 36.65-36.65 36.65z" fill="#673ab7" class="fill-d4ff93"></path><path d="M409.45 511H103.78c-24.47 0-44.38-19.91-44.38-44.38L58.17 45.4C58.17 20.91 78.08 1 102.55 1h305.67c24.47 0 44.38 19.91 44.38 44.38l1.23 421.22c0 24.49-19.91 44.4-44.38 44.4zM102.55 16.45c-15.95 0-28.92 12.98-28.92 28.92l1.23 421.22c0 15.98 12.98 28.95 28.92 28.95h305.67c15.95 0 28.92-12.98 28.92-28.93L437.15 45.4c0-15.97-12.98-28.95-28.92-28.95H102.55z" fill="#000000" class="fill-000000"></path><path d="M108.7 44.69h294.61v156.29H108.7z" fill="#eaf3f2" class="fill-eaf3f2"></path><path d="M403.3 208.71H108.7c-4.27 0-7.73-3.46-7.73-7.73V44.69c0-4.27 3.46-7.73 7.73-7.73h294.6c4.27 0 7.73 3.46 7.73 7.73v156.29c0 4.27-3.46 7.73-7.73 7.73zm-286.88-15.46h279.15V52.42H116.42v140.83z" fill="#000000" class="fill-000000"></path><path d="M107.39 235.56h69.16v51.18h-69.16z" fill="#0077ff" class="fill-1ef6f6"></path><path d="M176.55 294.46h-69.16c-4.27 0-7.73-3.46-7.73-7.73v-51.17c0-4.27 3.46-7.73 7.73-7.73h69.16c4.27 0 7.73 3.46 7.73 7.73v51.17c-.01 4.27-3.47 7.73-7.73 7.73zm-61.43-15.45h53.7v-35.72h-53.7v35.72z" fill="#000000" class="fill-000000"></path><path d="M230.33 235.56h69.16v51.18h-69.16z" fill="#0077ff" class="fill-1ef6f6"></path><path d="M299.49 294.46h-69.16c-4.27 0-7.73-3.46-7.73-7.73v-51.17c0-4.27 3.46-7.73 7.73-7.73h69.16c4.27 0 7.73 3.46 7.73 7.73v51.17c0 4.27-3.46 7.73-7.73 7.73zm-61.43-15.45h53.7v-35.72h-53.7v35.72z" fill="#000000" class="fill-000000"></path><path d="M337.91 235.56h65.39v51.18h-65.39z" fill="#0077ff" class="fill-1ef6f6"></path><path d="M403.3 294.46h-65.39c-4.27 0-7.73-3.46-7.73-7.73v-51.17c0-4.27 3.46-7.73 7.73-7.73h65.39c4.27 0 7.73 3.46 7.73 7.73v51.17c0 4.27-3.46 7.73-7.73 7.73zm-57.66-15.45h49.94v-35.72h-49.94v35.72z" fill="#000000" class="fill-000000"></path><path d="M107.39 327.77h69.16v51.18h-69.16z" fill="#0077ff" class="fill-1ef6f6"></path><path d="M176.55 386.67h-69.16c-4.27 0-7.73-3.46-7.73-7.73v-51.17c0-4.27 3.46-7.73 7.73-7.73h69.16c4.27 0 7.73 3.46 7.73 7.73v51.17c-.01 4.27-3.47 7.73-7.73 7.73zm-61.43-15.46h53.7V335.5h-53.7v35.71z" fill="#000000" class="fill-000000"></path><path d="M230.33 327.77h69.16v51.18h-69.16z" fill="#0077ff" class="fill-1ef6f6"></path><path d="M299.49 386.67h-69.16c-4.27 0-7.73-3.46-7.73-7.73v-51.17c0-4.27 3.46-7.73 7.73-7.73h69.16c4.27 0 7.73 3.46 7.73 7.73v51.17c0 4.27-3.46 7.73-7.73 7.73zm-61.43-15.46h53.7V335.5h-53.7v35.71z" fill="#000000" class="fill-000000"></path><path d="M230.33 415.37h69.16v51.18h-69.16z" fill="#0077ff" class="fill-1ef6f6"></path><path d="M299.49 474.27h-69.16c-4.27 0-7.73-3.46-7.73-7.73v-51.17c0-4.27 3.46-7.73 7.73-7.73h69.16c4.27 0 7.73 3.46 7.73 7.73v51.17c0 4.27-3.46 7.73-7.73 7.73zm-61.43-15.46h53.7v-35.72h-53.7v35.72z" fill="#000000" class="fill-000000"></path><path d="M107.39 415.37h69.16v51.18h-69.16z" fill="#0077ff" class="fill-1ef6f6"></path><path d="M176.55 474.27h-69.16c-4.27 0-7.73-3.46-7.73-7.73v-51.17c0-4.27 3.46-7.73 7.73-7.73h69.16c4.27 0 7.73 3.46 7.73 7.73v51.17c-.01 4.27-3.47 7.73-7.73 7.73zm-61.43-15.46h53.7v-35.72h-53.7v35.72z" fill="#000000" class="fill-000000"></path><path d="M339.38 332.22h63.92v135.24h-63.92z" fill="#febc00" class="fill-fd535f"></path><path d="M403.3 475.19h-63.92c-4.27 0-7.73-3.46-7.73-7.73V332.22c0-4.27 3.46-7.73 7.73-7.73h63.92c4.27 0 7.73 3.46 7.73 7.73v135.24c0 4.27-3.46 7.73-7.73 7.73zm-56.19-15.45h48.47V339.95h-48.47v119.79zM171.07 83.75h13.82v69.67h13.64v13.46H152.9v-13.46h13.88v-48.66c-4.11 4.27-8.73 7.71-13.88 10.32V98.97c7.36-3.87 13.42-8.94 18.17-15.22zM246.77 113.52l-16.48-3.32c2.69-17.99 11.79-26.99 27.29-26.99 8.37 0 14.74 2.32 19.11 6.97 4.37 4.65 6.55 10.33 6.55 17.05 0 6.92-2.41 13.7-7.24 20.31-4.83 6.62-13.91 14.36-27.23 23.21h35.62l-1.33 16.12H230.3v-16.12c15.09-12.92 24.51-22.04 28.25-27.38 3.74-5.33 5.61-10.39 5.61-15.18 0-6.84-2.58-10.26-7.73-10.26-3.1 0-5.37 1.35-6.79 4.04-1.43 2.71-2.39 6.56-2.87 11.55zM332.68 107.36l-15.7-2.96c4.14-14.13 13.2-21.19 27.17-21.19 7.64 0 13.61 1.98 17.9 5.95 4.29 3.97 6.43 9.35 6.43 16.15 0 8.69-4.09 14.81-12.25 18.35 9.26 2.94 13.88 9.48 13.88 19.62 0 8.13-2.54 14.31-7.61 18.53-5.07 4.23-11.53 6.34-19.38 6.34-7.04 0-13.16-1.85-18.35-5.55-5.19-3.7-8.41-9.98-9.66-18.84l16-2.66c.8 8.21 4.38 12.32 10.75 12.32 2.94 0 5.27-.98 7-2.96 1.73-1.97 2.6-4.79 2.6-8.45 0-7.49-4.23-11.23-12.68-11.23l-5.01.06V117.5h5.01c2.69 0 4.81-.25 6.34-.75 1.53-.5 2.81-1.56 3.83-3.17 1.03-1.61 1.54-3.72 1.54-6.34 0-6.68-2.77-10.02-8.3-10.02-4.85 0-8.02 3.38-9.51 10.14z" fill="#000000" class="fill-000000"></path></svg>