<svg viewBox="0 0 128 128" xmlns="http://www.w3.org/2000/svg"><g data-name="15 Formula"><rect height="64" rx="6" ry="6" width="96" x="16" y="32" fill="#121111" class="fill-e8bc91"></rect><path d="M16.82 38.82a6 6 0 0 1 6-6c91 0 85.45-.58 87.81 1.37A6 6 0 0 0 106 32H22a6 6 0 0 0-6 6v52a6 6 0 0 0 2.19 4.63c-1.89-2.28-1.37.52-1.37-55.81Z" fill="#000000" class="fill-efd3b6"></path><path d="M109 32.82c1.14 2 .82-1.67.82 55a6 6 0 0 1-6 6c-90.65 0-85 .35-87-.82A6 6 0 0 0 22 96h84a6 6 0 0 0 6-6V38a6 6 0 0 0-3-5.18Z" fill="#1c1a18" class="fill-e0a66d"></path><rect height="88" rx="4" ry="4" transform="rotate(90 64 64)" width="56" x="36" y="20" fill="#673ab7" class="fill-23a859"></rect><path d="M106.57 37c1.34 1.58 1-1.74 1 50.57a4 4 0 0 1-4 4c-86.26 0-80.93.43-82.57-1 1.73 2-3.5 1.43 83 1.43a4 4 0 0 0 4-4c0-52 .54-49.37-1.43-51Z" fill="#000000" class="fill-4fb97a"></path><path d="M20.94 40.94a4 4 0 0 1 4-4c86.42 0 80.8-.34 82.31.75A4 4 0 0 0 104 36H24a4 4 0 0 0-4 4c0 51.58-.68 49.56 1.69 51.25-1.07-1.49-.75 1.75-.75-50.31Z" fill="#673ab7" class="fill-299455"></path><path d="m50.83 75.41-6.67-6.67A2 2 0 0 1 47 65.92l4.25 4.25 4.67-16.7A2 2 0 0 1 57.83 52h24.59a2 2 0 0 1 0 4H59.35l-5.18 18.54a2 2 0 0 1-3.34.87Z" fill="#e0e0e0" class="fill-ffffff"></path><path d="M73.15 67.32 78.42 62a2 2 0 0 0-2.83-2.83l-5.27 5.27-5.27-5.27A2 2 0 0 0 62.22 62l5.27 5.27-5.27 5.27a2 2 0 0 0 2.83 2.83l5.27-5.27 5.27 5.27a2 2 0 0 0 2.83-2.83Z" fill="#e0e0e0" class="fill-ffffff"></path></g></svg>