<svg viewBox="0 0 64 64" xml:space="preserve" xmlns="http://www.w3.org/2000/svg"><path d="M7 21v28.5s5.5-3 13.8-3 8.2 1.1 8.2 1.1-.5 2.4 2.8 2.4h.5c3.2 0 2.7-2.4 2.7-2.4s0-1.2 8.2-1.2S57 49.5 57 49.5V21" fill="#673ab7" class="fill-00a388"></path><path d="M32 18.7s-10-6.3-22 0v26.5s9.2-5.8 22 0c12.8-5.8 22 0 22 0V18.7c-12-6.2-22 0-22 0z" fill="#E5E5E5" class="fill-e5e5e5"></path><path d="M32 18.7s-10-6.3-22 0v26.5s9.2-5.8 22 0c12.8-5.8 22 0 22 0V18.7c-12-6.2-22 0-22 0z" fill="none" stroke="#000000" stroke-linecap="round" stroke-linejoin="round" stroke-miterlimit="10" stroke-width="2" class="stroke-2c3e50"></path><path d="M7 21v28.5s5.5-3 13.8-3 8.2 1.1 8.2 1.1-.5 2.4 2.8 2.4h.5c3.2 0 2.7-2.4 2.7-2.4s0-1.2 8.2-1.2S57 49.5 57 49.5V21M32 24v15" fill="none" stroke="#000000" stroke-linecap="round" stroke-linejoin="round" stroke-miterlimit="10" stroke-width="2" class="stroke-2c3e50"></path></svg>