<svg viewBox="0 0 512 512" xml:space="preserve" xmlns="http://www.w3.org/2000/svg" enable-background="new 0 0 512 512"><path d="M114.2 475.2v-95.3h274.5l37.5 47.6-37.5 47.7z" fill="#febc00" class="fill-efaf3f"></path><path d="M91.3 506c-43.3 0-78.5-35.2-78.5-78.5S48 349 91.3 349s78.5 35.2 78.5 78.5S134.5 506 91.3 506z" fill="#febc00" class="fill-efaf3f"></path><circle cx="91.3" cy="427.5" r="63" fill="#f7dfaa" class="fill-ffce6c"></circle><path d="M58.5 424.4c1.7 0 2.9-.4 3.7-1.3.8-.9 1.2-2.1 1.2-3.7 0-1.3-.4-2.4-1.3-3.3-.9-.9-2-1.3-3.6-1.3-1.3 0-2.4.4-3.3 1.2-.9.8-1.3 1.8-1.3 3h-6.8v-.1c-.1-2.8 1-5 3.2-6.8 2.2-1.8 5-2.7 8.2-2.7 3.6 0 6.5.9 8.7 2.6 2.1 1.7 3.2 4.2 3.2 7.4 0 1.6-.5 3.1-1.4 4.4-.9 1.3-2.2 2.4-3.8 3.2 1.8.7 3.3 1.7 4.3 3.2s1.5 3.1 1.5 5.1c0 3.2-1.2 5.8-3.5 7.6-2.3 1.8-5.3 2.8-9 2.8-3.2 0-6-.9-8.4-2.6-2.4-1.7-3.6-4.2-3.5-7.3v-.1h6.9c0 1.3.5 2.4 1.4 3.3.9.9 2.1 1.3 3.6 1.3 1.6 0 2.9-.5 3.9-1.4 1-1 1.5-2.2 1.5-3.6 0-1.9-.5-3.2-1.4-4.1-.9-.9-2.3-1.3-4.1-1.3h-3.9v-5.3h4zM99 432.4c0 4.1-1.1 7.4-3.3 9.7-2.2 2.4-5 3.5-8.6 3.5-3.6 0-6.5-1.2-8.7-3.5-2.2-2.4-3.3-5.6-3.3-9.7v-9.7c0-4.1 1.1-7.4 3.3-9.7 2.2-2.4 5.1-3.6 8.6-3.6 3.6 0 6.5 1.2 8.6 3.6 2.2 2.4 3.3 5.6 3.3 9.7v9.7zM92 422c0-2.3-.4-4-1.3-5.2-.9-1.2-2.1-1.9-3.6-1.9s-2.7.6-3.6 1.9c-.8 1.2-1.3 3-1.3 5.2v11.1c0 2.3.4 4.1 1.3 5.3.9 1.2 2.1 1.8 3.6 1.8s2.7-.6 3.6-1.8 1.3-3 1.3-5.3V422zM103.6 416.7c0-2.1.7-3.8 2-5.2 1.3-1.4 3.2-2.1 5.6-2.1 2.4 0 4.3.7 5.7 2.1 1.3 1.4 2 3.1 2 5.2v1.9c0 2.1-.7 3.8-2 5.2-1.3 1.4-3.2 2.1-5.6 2.1-2.4 0-4.3-.7-5.7-2.1-1.4-1.4-2-3.1-2-5.2v-1.9zm4.7 1.9c0 .9.3 1.7.8 2.4.5.6 1.3 1 2.2 1 .9 0 1.7-.3 2.2-1 .5-.6.8-1.4.8-2.4v-1.9c0-.9-.3-1.7-.8-2.4s-1.2-1-2.2-1c-1 0-1.7.3-2.2 1-.5.7-.8 1.4-.8 2.4v1.9zm4.2 23.9-3.4-1.8 17.2-27.5 3.4 1.8-17.2 27.5zm8-6c0-2.1.7-3.8 2-5.2 1.4-1.4 3.2-2.1 5.6-2.1 2.4 0 4.3.7 5.6 2.1 1.3 1.4 2 3.1 2 5.2v1.9c0 2.1-.7 3.8-2 5.2-1.3 1.4-3.2 2.1-5.6 2.1-2.4 0-4.3-.7-5.7-2.1-1.4-1.4-2-3.1-2-5.2v-1.9zm4.7 1.9c0 .9.3 1.7.8 2.4.6.7 1.3 1 2.2 1 1 0 1.8-.3 2.2-.9.5-.6.7-1.4.7-2.4v-1.9c0-.9-.3-1.7-.8-2.4s-1.2-1-2.2-1c-1 0-1.7.3-2.2 1-.5.7-.8 1.4-.8 2.4v1.8z" fill="#474747" class="fill-474747"></path><path d="M114.2 303.7v-95.4h311l37.5 47.7-37.5 47.7z" fill="#0077ff" class="fill-d64c45 fill-455bd6"></path><path d="M91.3 334.5c-43.3 0-78.5-35.2-78.5-78.5s35.2-78.5 78.5-78.5 78.5 35.2 78.5 78.5-35.3 78.5-78.5 78.5z" fill="#0077ff" class="fill-d64c45 fill-455bd6"></path><circle cx="91.3" cy="256" r="63" fill="#bed1e8" class="fill-ed6f62 fill-5996cf"></circle><path d="M60.6 237.9c1.4 0 2.6.1 3.8.4 1.2.2 2.3.6 3.5 1.1l-1.3 5.2c-1.1-.4-2.1-.6-3-.8-.9-.2-1.9-.3-3-.3-2.1 0-3.7.8-5 2.4-1.3 1.6-1.9 3.8-1.9 6.6v1.1c.9-.9 2.1-1.6 3.3-2.1 1.3-.5 2.7-.8 4.3-.8 3 0 5.4 1.1 7.1 3.2 1.7 2.1 2.5 4.9 2.5 8.4s-1.1 6.4-3.3 8.6c-2.2 2.2-5.1 3.3-8.6 3.3-3.7 0-6.7-1.3-9-3.8s-3.5-6-3.5-10.3v-7.4c0-4.5 1.3-8 3.9-10.7 2.9-2.8 6.2-4.1 10.2-4.1zM59.1 256c-1.3 0-2.4.2-3.3.6-.9.4-1.6 1-2.1 1.7v1.9c0 2.7.5 4.8 1.5 6.3s2.3 2.2 3.9 2.2c1.5 0 2.6-.6 3.5-1.8.9-1.2 1.3-2.8 1.3-4.7 0-1.9-.4-3.5-1.3-4.6-.8-1.1-2-1.6-3.5-1.6zM99 260.9c0 4.1-1.1 7.4-3.3 9.7-2.2 2.4-5 3.5-8.6 3.5-3.6 0-6.5-1.2-8.7-3.5-2.2-2.4-3.3-5.6-3.3-9.7v-9.7c0-4.1 1.1-7.4 3.3-9.7 2.2-2.4 5.1-3.6 8.6-3.6 3.6 0 6.5 1.2 8.6 3.6 2.2 2.4 3.3 5.6 3.3 9.7v9.7zm-7-10.5c0-2.3-.4-4-1.3-5.2-.9-1.2-2.1-1.9-3.6-1.9s-2.7.6-3.6 1.9c-.8 1.2-1.3 3-1.3 5.2v11.1c0 2.3.4 4.1 1.3 5.3.9 1.2 2.1 1.8 3.6 1.8s2.7-.6 3.6-1.8 1.3-3 1.3-5.3v-11.1zM103.6 245.2c0-2.1.7-3.8 2-5.2 1.3-1.4 3.2-2.1 5.6-2.1 2.4 0 4.3.7 5.7 2.1 1.3 1.4 2 3.1 2 5.2v1.9c0 2.1-.7 3.8-2 5.2-1.3 1.4-3.2 2.1-5.6 2.1-2.4 0-4.3-.7-5.7-2.1-1.4-1.4-2-3.1-2-5.2v-1.9zm4.7 1.8c0 .9.3 1.7.8 2.4.5.6 1.3 1 2.2 1 .9 0 1.7-.3 2.2-1 .5-.6.8-1.4.8-2.4v-1.9c0-.9-.3-1.7-.8-2.4s-1.2-1-2.2-1c-1 0-1.7.3-2.2 1-.5.7-.8 1.4-.8 2.4v1.9zm4.1 24-3.4-1.8 17.2-27.5 3.4 1.8-17.2 27.5zm8-6c0-2.1.7-3.8 2-5.2 1.4-1.4 3.2-2.1 5.6-2.1 2.4 0 4.3.7 5.6 2.1 1.3 1.4 2 3.1 2 5.2v1.9c0 2.1-.7 3.8-2 5.2-1.3 1.4-3.2 2.1-5.6 2.1-2.4 0-4.3-.7-5.7-2.1-1.4-1.4-2-3.1-2-5.2V265zm4.7 1.8c0 .9.3 1.7.8 2.4.6.7 1.3 1 2.2 1 1 0 1.8-.3 2.2-.9.5-.6.7-1.4.7-2.4V265c0-.9-.3-1.7-.8-2.4s-1.2-1-2.2-1c-1 0-1.7.3-2.2 1-.5.7-.8 1.4-.8 2.4v1.8z" fill="#474747" class="fill-474747"></path><path d="M114.2 130.4V35h347.5l37.5 47.7-37.5 47.7z" fill="#673ab7" class="fill-8aaf5f fill-673ab7"></path><path d="M91.3 162.9c-43.3 0-78.5-35.2-78.5-78.5S48 6 91.3 6s78.5 35.2 78.5 78.5-35.3 78.4-78.5 78.4z" fill="#673ab7" class="fill-8aaf5f fill-673ab7"></path><circle cx="91.3" cy="84.5" r="63" fill="#a788de" class="fill-a6d17a fill-a788de"></circle><path d="M57.5 97.2c1.7 0 3.2-.7 4.3-2 1.1-1.3 1.7-3.1 1.7-5.5v-2.3c-.8 1-1.7 1.8-2.8 2.3-1.1.5-2.2.8-3.5.8-3.3 0-5.8-1.1-7.7-3.2-1.9-2.1-2.8-5-2.8-8.7 0-3.5 1.1-6.5 3.3-8.8 2.2-2.3 5-3.5 8.5-3.5s6.4 1.2 8.7 3.6c2.2 2.4 3.4 5.7 3.4 9.9v9.5c0 4.1-1.2 7.3-3.7 9.7-2.4 2.4-5.6 3.6-9.3 3.6-1.2 0-2.5-.1-3.8-.4-1.3-.3-2.5-.6-3.7-1.1l1.2-5.1c1 .4 2 .7 3 .9.8.2 1.9.3 3.2.3zm.8-11.9c1.1 0 2.2-.2 3-.7.9-.5 1.6-1.1 2.1-1.9v-4.1c0-2.2-.5-3.9-1.4-5.1-.9-1.2-2.1-1.8-3.6-1.8-1.4 0-2.6.7-3.4 2-.9 1.3-1.3 2.9-1.3 4.8 0 2 .4 3.6 1.2 4.9.8 1.3 1.9 1.9 3.4 1.9zM99.1 89.3c0 4.1-1.1 7.4-3.3 9.7-2.2 2.4-5 3.5-8.6 3.5-3.6 0-6.5-1.2-8.7-3.5-2.2-2.4-3.3-5.6-3.3-9.7v-9.7c0-4.1 1.1-7.4 3.3-9.7 2.2-2.4 5.1-3.6 8.6-3.6 3.6 0 6.5 1.2 8.6 3.6 2.2 2.4 3.3 5.6 3.3 9.7v9.7zm-7-10.4c0-2.3-.4-4-1.3-5.2-.9-1.2-2.1-1.9-3.6-1.9s-2.7.6-3.6 1.9c-.8 1.2-1.3 3-1.3 5.2V90c0 2.3.4 4.1 1.3 5.3.9 1.2 2.1 1.8 3.6 1.8s2.7-.6 3.6-1.8c.8-1.2 1.3-3 1.3-5.3V78.9zM103.7 73.6c0-2.1.7-3.8 2-5.2 1.3-1.4 3.2-2.1 5.6-2.1 2.4 0 4.3.7 5.7 2.1 1.3 1.4 2 3.1 2 5.2v1.9c0 2.1-.7 3.8-2 5.2-1.3 1.4-3.2 2.1-5.6 2.1-2.4 0-4.3-.7-5.7-2.1-1.4-1.4-2-3.1-2-5.2v-1.9zm4.7 1.9c0 .9.3 1.7.8 2.4.5.6 1.3 1 2.2 1 .9 0 1.7-.3 2.2-1 .5-.6.8-1.4.8-2.4v-1.9c0-.9-.3-1.7-.8-2.4s-1.2-1-2.2-1c-1 0-1.7.3-2.2 1-.5.7-.8 1.4-.8 2.4v1.9zm4.2 23.9-3.4-1.8 17.2-27.5 3.4 1.8-17.2 27.5zm8-6c0-2.1.7-3.8 2-5.2 1.4-1.4 3.2-2.1 5.6-2.1 2.4 0 4.3.7 5.6 2.1 1.3 1.4 2 3.1 2 5.2v1.9c0 2.1-.7 3.8-2 5.2-1.3 1.4-3.2 2.1-5.6 2.1-2.4 0-4.3-.7-5.7-2.1-1.4-1.4-2-3.1-2-5.2v-1.9zm4.6 1.9c0 .9.3 1.7.8 2.4.6.7 1.3 1 2.2 1 1 0 1.8-.3 2.2-.9.5-.6.7-1.4.7-2.4v-1.9c0-.9-.3-1.7-.8-2.4s-1.2-1-2.2-1c-1 0-1.7.3-2.2 1-.5.7-.8 1.4-.8 2.4v1.8z" fill="#474747" class="fill-474747"></path></svg>