<svg viewBox="0 0 64 64" xmlns="http://www.w3.org/2000/svg"><path d="M44 34a21 21 0 0 1-25.67 20.47L9 59v-9.35A21 21 0 1 1 44 34Z" fill="#673ab7" class="fill-a2d0ff"></path><path d="M55 41.65V51l-9.33-4.53a20.51 20.51 0 0 1-6.13.47c10.3-13.18 1.73-32.74-15.08-33.88A20.94 20.94 0 0 1 41 5c19.34 0 28.24 23.93 14 36.65Z" fill="#683db3" class="fill-8bc4ff"></path><path d="M41 3a22.84 22.84 0 0 0-17.45 8C2.81 10.45-8 36 7 50.52V59a2 2 0 0 0 2.87 1.8l8.71-4.23A22.9 22.9 0 0 0 40.44 49a22.39 22.39 0 0 0 5-.41C54.82 53.14 54.36 53 55 53a2 2 0 0 0 2-2v-8.48C71.81 28.2 61.55 3 41 3ZM23 53c-7.17 0-1.38-2.35-12 2.81 0-6.25.24-6.84-.67-7.65A19 19 0 1 1 23 53Zm30.67-12.84c-.9.8-.67 1.13-.67 7.65-8.78-4.27-6-3.4-9.72-3a23.06 23.06 0 0 0-14.77-33.14C40.58 1.1 60 9.57 60 26a19 19 0 0 1-6.33 14.16Z" fill="#000000" class="fill-2e58ff fill-673ab7"></path><circle cx="23" cy="47" r="2" fill="#000000" class="fill-2e58ff fill-673ab7"></circle><path d="M22.15 19A9 9 0 0 0 14 32.14a2 2 0 1 0 3.54-1.84 5 5 0 0 1 4.55-7.3c4.73.08 6.85 6.44 2.65 9.18A8 8 0 0 0 21 38.83a2 2 0 1 0 4 0 4 4 0 0 1 1.93-3.3c7.5-4.9 3.87-16.38-4.78-16.53Z" fill="#000000" class="fill-2e58ff fill-673ab7"></path></svg>