<svg viewBox="0 0 64 64" xmlns="http://www.w3.org/2000/svg"><path d="M51.129 3H8a5 5 0 0 0-5 5v5h10v46h44V8.871A5.87 5.87 0 0 0 51.129 3Z" fill="#d9dae2" class="fill-d9dae2"></path><path d="M51.129 3H8a5 5 0 0 0-5 5v5h10v46a44 44 0 0 0 44-44V8.871A5.87 5.87 0 0 0 51.129 3Z" fill="#e5e6eb" class="fill-e5e6eb"></path><path d="M49 44 37 56h4v5l8-8 8 8v-6h4L49 44z" fill="#673ab7" class="fill-0468ad"></path><path d="M20 19h30v2H20zM20 25h30v2H20zM20 31h30v2H20zM20 37h30v2H20z" fill="#444444" class="fill-444444"></path><circle cx="35" cy="12" r="3" fill="#ffffff" class="fill-ffffff"></circle><path d="M8 3a5 5 0 0 1 5 5v5H3V8a5 5 0 0 1 5-5Z" fill="#cfcfd9" class="fill-cfcfd9"></path><circle cx="49" cy="49" r="6" fill="#815ac4" class="fill-027de5"></circle><circle cx="49" cy="49" r="4" fill="#ffffff" class="fill-cceaff"></circle><path d="m44 58-2 2h14l-2-2H44z" fill="#000000" class="fill-000000"></path><path d="M51.129 2H8a6.006 6.006 0 0 0-6 6v5a1 1 0 0 0 1 1h9v45a1 1 0 0 0 1 1h28v-2H14V8a5.969 5.969 0 0 0-1.54-4h38.669A4.877 4.877 0 0 1 56 8.871v41.546l2 1.833V8.871A6.878 6.878 0 0 0 51.129 2ZM12 12H4V8a4 4 0 0 1 8 0Z" fill="#000000" class="fill-000000"></path><path d="M20 19h30v2H20zM20 25h30v2H20zM20 31h30v2H20zM20 37h30v2H20zM39 12a4 4 0 1 0-4 4 4 4 0 0 0 4-4Zm-6 0a2 2 0 1 1 2 2 2 2 0 0 1-2-2Z" fill="#000000" class="fill-000000"></path></svg>