<svg viewBox="0 0 64 64" xmlns="http://www.w3.org/2000/svg"><g data-name="filled outline"><path transform="rotate(90 32 10.5)" d="M28.5 8.5h7v4h-7z" fill="#a4a4ac" class="fill-a4a4ac"></path><path d="M32 60.71A23.71 23.71 0 1 1 55.71 37 23.73 23.73 0 0 1 32 60.71Z" fill="#673ab7" class="fill-1394f6"></path><circle cx="32" cy="37" r="19" fill="#ffffff" class="fill-ffffff"></circle><path transform="rotate(90 32 5)" d="M30-1h4v12h-4z" fill="#ffffff" class="fill-ffffff"></path><path transform="rotate(-45 54.004 15.001)" d="M52.17 13.17h3.66v3.66h-3.66z" fill="#ffffff" class="fill-ffffff"></path><path d="M32 17a20 20 0 1 0 20 20 20 20 0 0 0-20-20Zm9.84 35.05-1.75-3-1.74 1 1.76 3A17.91 17.91 0 0 1 33 55v-3.56h-2V55a17.91 17.91 0 0 1-7.11-1.9l1.76-3-1.74-1-1.75 3A18 18 0 0 1 17 46.84l3-1.75-1-1.74-3 1.76A17.91 17.91 0 0 1 14.05 38h3.51v-2h-3.51A17.91 17.91 0 0 1 16 28.89l3 1.76 1-1.74-3-1.75A18 18 0 0 1 22.16 22l1.75 3 1.74-1-1.76-3A17.91 17.91 0 0 1 31 19.05v3.51h2v-3.51A17.91 17.91 0 0 1 40.11 21l-1.76 3 1.74 1 1.75-3a18 18 0 0 1 5.21 5.21l-3 1.75 1 1.74 3-1.76A17.91 17.91 0 0 1 50 36h-3.56v2H50a17.91 17.91 0 0 1-1.9 7.11l-3-1.76-1 1.74 3 1.75a18 18 0 0 1-5.26 5.21Zm10.87-34.34L54 19l4-4-4-4-4 4 1.29 1.29-2.54 2.54A24.63 24.63 0 0 0 35 12.47V8h4V2H25v6h4v4.47a24.71 24.71 0 1 0 21.17 7.78ZM54 13.83 55.17 15 54 16.17 52.83 15ZM27 6V4h10v2H27Zm4 6.31V8h2v4.31h-2Zm1 47.4A22.71 22.71 0 1 1 54.71 37 22.74 22.74 0 0 1 32 59.71Zm1-25.53V26h-2v8.18a3 3 0 1 0 2 0ZM32 38a1 1 0 1 1 1-1 1 1 0 0 1-1 1Z" fill="#000000" class="fill-000000"></path></g></svg>