<svg viewBox="0 0 512 512" xmlns="http://www.w3.org/2000/svg"><g data-name="/ FLAT"><path d="M72 72v400a16 16 0 0 0 16 16h272a16 16 0 0 0 16-16V72Z" fill="#763cd9" class="fill-0071af fill-763cd9"></path><path d="M408 24H104a32 32 0 0 0-32 32v16h304V56a32 32 0 0 1 32-32Z" fill="#0077ff" class="fill-7db6d6 fill-b39ddb"></path><path d="M408 24a32 32 0 0 1 32 32v240a16 16 0 0 1-16 16h-48V56a32 32 0 0 1 32-32Z" fill="#0077ff" class="fill-00659d fill-b39ddb"></path><path d="M72 72v32l25.331 16 25.332-16 25.332 16 25.328-16 25.33 16 25.331-16 25.334 16 25.335-16 25.334 16 25.335-16 25.34 16L376 104V72Z" fill="#0077ff" class="fill-5ca4cc fill-b39ddb"></path><path d="M176 176h112v16H176zM176 256h112v16H176zM176 336h112v16H176z" fill="#febc00" class="fill-59cea7"></path><rect height="48" rx="16" width="48" x="104" y="160" fill="#febc00" class="fill-31c292 fill-59cea7"></rect><rect height="48" rx="16" width="48" x="104" y="240" fill="#febc00" class="fill-31c292 fill-59cea7"></rect><rect height="48" rx="16" width="48" x="104" y="320" fill="#febc00" class="fill-31c292 fill-59cea7"></rect><rect height="48" rx="16" width="48" x="104" y="400" fill="#febc00" class="fill-31c292 fill-59cea7"></rect><path d="M176 416h112v16H176z" fill="#febc00" class="fill-59cea7"></path><path d="m344 424-16 24-16-24V160a16 16 0 0 1 16-16 16 16 0 0 1 16 16Z" fill="#dfdfdf" class="fill-dfdfdf"></path><path d="M344 184h-32v-24a16 16 0 0 1 16-16 16 16 0 0 1 16 16Z" fill="#ec9090" class="fill-ec9090"></path><path d="M72 72v400a16 16 0 0 0 16 16h272a16 16 0 0 0 16-16V72Z" fill="#763cd9" class="fill-0071af fill-763cd9"></path><path d="M408 24H104a32 32 0 0 0-32 32v16h304V56a32 32 0 0 1 32-32Z" fill="#0077ff" class="fill-7db6d6 fill-b39ddb"></path><path d="M408 24a32 32 0 0 1 32 32v240a16 16 0 0 1-16 16h-48V56a32 32 0 0 1 32-32Z" fill="#0077ff" class="fill-00659d fill-b39ddb"></path><path d="M176 176h112v16H176zM176 256h112v16H176zM176 336h112v16H176z" fill="#febc00" class="fill-59cea7"></path><rect height="48" rx="16" width="48" x="104" y="160" fill="#febc00" class="fill-31c292 fill-59cea7"></rect><rect height="48" rx="16" width="48" x="104" y="240" fill="#febc00" class="fill-31c292 fill-59cea7"></rect><rect height="48" rx="16" width="48" x="104" y="320" fill="#febc00" class="fill-31c292 fill-59cea7"></rect><rect height="48" rx="16" width="48" x="104" y="400" fill="#febc00" class="fill-31c292 fill-59cea7"></rect><path d="M176 416h112v16H176z" fill="#febc00" class="fill-59cea7"></path><path d="m344 424-16 24-16-24V160a16 16 0 0 1 16-16 16 16 0 0 1 16 16Z" fill="#dfdfdf" class="fill-dfdfdf"></path><path d="M344 184h-32v-24a16 16 0 0 1 16-16 16 16 0 0 1 16 16Z" fill="#ec9090" class="fill-ec9090"></path><path d="M376 472.005V184c0 163.545-129.15 296.905-291.023 303.706A16.055 16.055 0 0 0 88 488h272a16 16 0 0 0 16-15.995Z" fill="#673ab7" class="fill-006095 fill-673ab7"></path><path d="M421.146 26.827A31.872 31.872 0 0 0 408 24a32 32 0 0 0-32 32v32a64.025 64.025 0 0 1 45.146-61.173Z" fill="#673ab7" class="fill-005686 fill-824dd6"></path><path d="M376 80H88v32l25.331 16 25.332-16 25.332 16 25.328-16 25.33 16 25.331-16 25.334 16 25.335-16 25.334 16 25.335-16 25.339 16 9.339-5.897V80z" fill="#673ab7" class="fill-006095 fill-673ab7"></path><path d="M72 72v32l25.331 16 25.332-16 25.332 16 25.328-16 25.33 16 25.331-16 25.334 16 25.335-16 25.334 16 25.335-16 25.34 16L376 104V72Z" fill="#0077ff" class="fill-5ca4cc fill-b39ddb"></path><path d="M247.827 432H288v-16h-19.591q-9.94 8.422-20.582 16Z" fill="#febc00" class="fill-4cb08e fill-59cea7"></path><path d="M312 370.568V424l16 24 16-24V319.887a304.106 304.106 0 0 1-32 50.68Z" fill="#bebebe" class="fill-bebebe"></path></g></svg>